<?xml version="1.0" encoding="iso-8859-1"?>
<!-- Generator: Adobe Illustrator 19.0.0, SVG Export Plug-In . SVG Version: 6.00 Build 0)  -->
<svg version="1.1" id="Layer_1" xmlns="http://www.w3.org/2000/svg" xmlns:xlink="http://www.w3.org/1999/xlink" x="0px" y="0px"
	 viewBox="0 0 390.231 390.231" style="enable-background:new 0 0 390.231 390.231;" xml:space="preserve">
<path style="fill:#FFC10D;" d="M311.085,137.115c0,49.842-76.412,168.533-114.877,223.806
	C122.511,254.707,80.232,173.382,80.232,137.115c0-63.418,51.459-115.459,115.459-115.459S311.085,73.18,311.085,137.115z"/>
<path style="fill:#194F82;" d="M195.626,0C120.313,0,58.511,61.22,58.511,137.115c0,72.598,126.836,247.143,127.354,247.661
	c3.814,6.529,13.576,7.564,17.907,1.099c5.43-7.047,127.935-176.679,127.935-248.76C332.741,61.22,270.939,0,195.626,0z
	 M311.085,137.115c0,49.842-76.412,168.533-114.877,223.806C122.511,254.707,80.232,173.382,80.232,137.115
	c0-63.418,51.459-115.459,115.459-115.459S311.085,73.18,311.085,137.115z"/>


</svg>
